<svg viewBox="0 0 379.348 330" xmlns="http://www.w3.org/2000/svg"><title>orxhestra code</title><defs><mask id="code-stacked-knockout" maskUnits="userSpaceOnUse" x="0" y="0" width="379.348" height="330"><rect x="0" y="0" width="379.348" height="330" fill="white"/><path d="M242.46 47.214 A124.419 124.419 0 0 0 136.888 152.786 A124.419 124.419 0 0 0 242.46 47.214 Z" fill="black" transform="translate(189.674 100) scale(1.08) translate(-189.674 -100)"/></mask></defs><path d="M136.888 47.214 A124.419 124.419 0 0 0 242.46 152.786 A124.419 124.419 0 0 0 136.888 47.214 Z" fill="#3FE0A8" mask="url(#code-stacked-knockout)"/><path d="M242.46 47.214 A124.419 124.419 0 0 0 136.888 152.786 A124.419 124.419 0 0 0 242.46 47.214 Z" fill="#3FE0A8"/><text x="189.674" y="247.214" text-anchor="middle" font-family="Geist, Inter, -apple-system, sans-serif" font-weight="500" font-size="65.574" letter-spacing="-0.015em" fill="#3FE0A8">orxhestra</text><text x="189.674" y="290" text-anchor="middle" font-family="Geist, Inter, -apple-system, sans-serif" font-weight="500" font-size="24" letter-spacing="0.18em" fill="#3FE0A8">code</text></svg>
