<svg viewBox="0 0 172.948 55" xmlns="http://www.w3.org/2000/svg"><title>orxhestra code</title><defs><mask id="code-side-knockout" maskUnits="userSpaceOnUse" x="0" y="0" width="172.948" height="55"><rect x="0" y="0" width="172.948" height="55" fill="white"/><path d="M31.698 16.548 A25.812 25.812 0 0 0 9.795 38.452 A25.812 25.812 0 0 0 31.698 16.548 Z" fill="black" transform="translate(20.746 27.5) scale(1.08) translate(-20.746 -27.5)"/></mask></defs><path d="M9.795 16.548 A25.812 25.812 0 0 0 31.698 38.452 A25.812 25.812 0 0 0 9.795 16.548 Z" fill="#3FE0A8" mask="url(#code-side-knockout)"/><path d="M31.698 16.548 A25.812 25.812 0 0 0 9.795 38.452 A25.812 25.812 0 0 0 31.698 16.548 Z" fill="#3FE0A8"/><text x="41.493" y="30" font-family="Geist, Inter, -apple-system, sans-serif" font-weight="500" font-size="24" letter-spacing="-0.015em" fill="#3FE0A8">orxhestra</text><text x="41.493" y="46" font-family="Geist, Inter, -apple-system, sans-serif" font-weight="500" font-size="12" letter-spacing="0.08em" fill="#3FE0A8">code</text></svg>
